<svg width="126" height="26" viewBox="0 0 126 26" fill="none" xmlns="http://www.w3.org/2000/svg">
<path d="M43.875 17.5234C43.4635 18.0599 42.8932 18.4661 42.1641 18.7422C41.4349 19.0182 40.6068 19.1562 39.6797 19.1562C38.7266 19.1562 37.8828 18.9401 37.1484 18.5078C36.4141 18.0755 35.8464 17.4583 35.4453 16.6562C35.0495 15.849 34.8438 14.9089 34.8281 13.8359V12.9453C34.8281 11.2266 35.2396 9.88542 36.0625 8.92188C36.8854 7.95312 38.0339 7.46875 39.5078 7.46875C40.7734 7.46875 41.7786 7.78125 42.5234 8.40625C43.2682 9.03125 43.7161 9.93229 43.8672 11.1094H41.9297C41.7109 9.73958 40.9167 9.05469 39.5469 9.05469C38.6615 9.05469 37.987 9.375 37.5234 10.0156C37.0651 10.651 36.8281 11.5859 36.8125 12.8203V13.6953C36.8125 14.9245 37.0703 15.8802 37.5859 16.5625C38.1068 17.2396 38.8281 17.5781 39.75 17.5781C40.7604 17.5781 41.4792 17.349 41.9062 16.8906V14.6641H39.5625V13.1641H43.875V17.5234ZM45.5078 14.6953C45.5078 13.8672 45.6719 13.1224 46 12.4609C46.3281 11.7943 46.7891 11.2839 47.3828 10.9297C47.9766 10.5703 48.6589 10.3906 49.4297 10.3906C50.5703 10.3906 51.4948 10.7578 52.2031 11.4922C52.9167 12.2266 53.3021 13.2005 53.3594 14.4141L53.3672 14.8594C53.3672 15.6927 53.2057 16.4375 52.8828 17.0938C52.5651 17.75 52.1068 18.2578 51.5078 18.6172C50.9141 18.9766 50.2266 19.1562 49.4453 19.1562C48.2526 19.1562 47.2969 18.7604 46.5781 17.9688C45.8646 17.1719 45.5078 16.112 45.5078 14.7891V14.6953ZM47.4062 14.8594C47.4062 15.7292 47.5859 16.4115 47.9453 16.9062C48.3047 17.3958 48.8047 17.6406 49.4453 17.6406C50.0859 17.6406 50.5833 17.3906 50.9375 16.8906C51.2969 16.3906 51.4766 15.6589 51.4766 14.6953C51.4766 13.8411 51.2917 13.1641 50.9219 12.6641C50.5573 12.1641 50.0599 11.9141 49.4297 11.9141C48.8099 11.9141 48.3177 12.1615 47.9531 12.6562C47.5885 13.1458 47.4062 13.8802 47.4062 14.8594ZM54.6172 14.6953C54.6172 13.8672 54.7812 13.1224 55.1094 12.4609C55.4375 11.7943 55.8984 11.2839 56.4922 10.9297C57.0859 10.5703 57.7682 10.3906 58.5391 10.3906C59.6797 10.3906 60.6042 10.7578 61.3125 11.4922C62.026 12.2266 62.4115 13.2005 62.4688 14.4141L62.4766 14.8594C62.4766 15.6927 62.3151 16.4375 61.9922 17.0938C61.6745 17.75 61.2161 18.2578 60.6172 18.6172C60.0234 18.9766 59.3359 19.1562 58.5547 19.1562C57.362 19.1562 56.4062 18.7604 55.6875 17.9688C54.974 17.1719 54.6172 16.112 54.6172 14.7891V14.6953ZM56.5156 14.8594C56.5156 15.7292 56.6953 16.4115 57.0547 16.9062C57.4141 17.3958 57.9141 17.6406 58.5547 17.6406C59.1953 17.6406 59.6927 17.3906 60.0469 16.8906C60.4062 16.3906 60.5859 15.6589 60.5859 14.6953C60.5859 13.8411 60.401 13.1641 60.0312 12.6641C59.6667 12.1641 59.1693 11.9141 58.5391 11.9141C57.9193 11.9141 57.4271 12.1615 57.0625 12.6562C56.6979 13.1458 56.5156 13.8802 56.5156 14.8594ZM63.75 14.7109C63.75 13.3984 64.0573 12.3516 64.6719 11.5703C65.2917 10.7839 66.112 10.3906 67.1328 10.3906C68.0964 10.3906 68.8542 10.7266 69.4062 11.3984L69.4922 10.5469H71.2031V18.7422C71.2031 19.8516 70.8568 20.7266 70.1641 21.3672C69.4766 22.0078 68.5469 22.3281 67.375 22.3281C66.7552 22.3281 66.1484 22.1979 65.5547 21.9375C64.9661 21.6823 64.5182 21.3464 64.2109 20.9297L65.1094 19.7891C65.6927 20.4818 66.4115 20.8281 67.2656 20.8281C67.8958 20.8281 68.3932 20.6562 68.7578 20.3125C69.1224 19.974 69.3047 19.474 69.3047 18.8125V18.2422C68.7578 18.8516 68.0286 19.1562 67.1172 19.1562C66.1276 19.1562 65.3177 18.763 64.6875 17.9766C64.0625 17.1901 63.75 16.1016 63.75 14.7109ZM65.6406 14.875C65.6406 15.724 65.8125 16.3932 66.1562 16.8828C66.5052 17.3672 66.987 17.6094 67.6016 17.6094C68.3672 17.6094 68.9349 17.2812 69.3047 16.625V12.9062C68.9453 12.2656 68.3828 11.9453 67.6172 11.9453C66.9922 11.9453 66.5052 12.1927 66.1562 12.6875C65.8125 13.1823 65.6406 13.9115 65.6406 14.875ZM75.1797 19H73.2812V7H75.1797V19ZM80.9766 19.1562C79.7734 19.1562 78.7969 18.7786 78.0469 18.0234C77.3021 17.263 76.9297 16.2526 76.9297 14.9922V14.7578C76.9297 13.9141 77.0911 13.1615 77.4141 12.5C77.7422 11.8333 78.2005 11.3151 78.7891 10.9453C79.3776 10.5755 80.0339 10.3906 80.7578 10.3906C81.9089 10.3906 82.7969 10.7578 83.4219 11.4922C84.0521 12.2266 84.3672 13.2656 84.3672 14.6094V15.375H78.8438C78.901 16.0729 79.1328 16.625 79.5391 17.0312C79.9505 17.4375 80.4661 17.6406 81.0859 17.6406C81.9557 17.6406 82.6641 17.2891 83.2109 16.5859L84.2344 17.5625C83.8958 18.0677 83.4427 18.4609 82.875 18.7422C82.3125 19.0182 81.6797 19.1562 80.9766 19.1562ZM80.75 11.9141C80.2292 11.9141 79.8073 12.0964 79.4844 12.4609C79.1667 12.8255 78.9635 13.3333 78.875 13.9844H82.4922V13.8438C82.4505 13.2083 82.2812 12.7292 81.9844 12.4062C81.6875 12.0781 81.276 11.9141 80.75 11.9141ZM91.9922 14.7734V19H90.0156V7.625H94.3672C95.638 7.625 96.6458 7.95573 97.3906 8.61719C98.1406 9.27865 98.5156 10.1536 98.5156 11.2422C98.5156 12.3568 98.1484 13.224 97.4141 13.8438C96.6849 14.4635 95.6615 14.7734 94.3438 14.7734H91.9922ZM91.9922 13.1875H94.3672C95.0703 13.1875 95.6068 13.0234 95.9766 12.6953C96.3464 12.362 96.5312 11.8828 96.5312 11.2578C96.5312 10.6432 96.3438 10.1536 95.9688 9.78906C95.5938 9.41927 95.0781 9.22917 94.4219 9.21875H91.9922V13.1875ZM102.086 19H100.188V7H102.086V19ZM109.211 19C109.128 18.8385 109.055 18.5755 108.992 18.2109C108.388 18.8411 107.648 19.1562 106.773 19.1562C105.924 19.1562 105.232 18.9141 104.695 18.4297C104.159 17.9453 103.891 17.3464 103.891 16.6328C103.891 15.7318 104.224 15.0417 104.891 14.5625C105.562 14.0781 106.521 13.8359 107.766 13.8359H108.93V13.2812C108.93 12.8438 108.807 12.4948 108.562 12.2344C108.318 11.9688 107.945 11.8359 107.445 11.8359C107.013 11.8359 106.659 11.9453 106.383 12.1641C106.107 12.3776 105.969 12.651 105.969 12.9844H104.07C104.07 12.5208 104.224 12.0885 104.531 11.6875C104.839 11.2812 105.255 10.9635 105.781 10.7344C106.312 10.5052 106.904 10.3906 107.555 10.3906C108.544 10.3906 109.333 10.6406 109.922 11.1406C110.51 11.6354 110.812 12.3333 110.828 13.2344V17.0469C110.828 17.8073 110.935 18.4141 111.148 18.8672V19H109.211ZM107.125 17.6328C107.5 17.6328 107.852 17.5417 108.18 17.3594C108.513 17.1771 108.763 16.9323 108.93 16.625V15.0312H107.906C107.203 15.0312 106.674 15.1536 106.32 15.3984C105.966 15.6432 105.789 15.9896 105.789 16.4375C105.789 16.8021 105.909 17.0938 106.148 17.3125C106.393 17.526 106.719 17.6328 107.125 17.6328ZM115.648 16.2812L117.367 10.5469H119.391L116.031 20.2812C115.516 21.7031 114.641 22.4141 113.406 22.4141C113.13 22.4141 112.826 22.3672 112.492 22.2734V20.8047L112.852 20.8281C113.331 20.8281 113.69 20.7396 113.93 20.5625C114.174 20.3906 114.367 20.099 114.508 19.6875L114.781 18.9609L111.812 10.5469H113.859L115.648 16.2812Z" fill="#150C01"/>
<g clip-path="url(#clip0_1_156)">
<path d="M18.4248 13.0001L2.41129 0.57749C1.79811 1.05702 1.38506 1.80193 1.38506 2.69004L1.38506 23.3102C1.38506 24.1983 1.79811 24.9432 2.41129 25.4221L18.4248 13.0001Z" fill="#9DC6FB"/>
<path d="M23.2717 10.674L19.397 8.43674L16.0009 8.86142L14.8344 13L15.4268 16.9623L19.397 17.5627L23.2717 15.3261C25.0626 14.2922 25.0626 11.7079 23.2717 10.674Z" fill="#FFE07D"/>
<path d="M19.3967 8.43676L5.41403 0.363906C4.39231 -0.225614 3.22541 -0.0586948 2.41148 0.577442L14.8341 13.0001L19.3967 8.43676Z" fill="#DD5790"/>
<path d="M19.3967 17.5628L14.8341 13.0001L2.41148 25.4221C3.22541 26.059 4.39231 26.2258 5.41403 25.6363L19.3967 17.5628Z" fill="#95D6A4"/>
<path d="M4.41248 2.69C4.41248 2.50952 4.42924 2.33534 4.46164 2.16792L2.41145 0.577549C1.79831 1.05677 1.38506 1.80168 1.38506 2.69L1.38506 23.3102C1.38506 24.1979 1.79836 24.9429 2.41145 25.4221L4.46164 23.8318C4.42919 23.6644 4.41248 23.4901 4.41248 23.3102L4.41248 2.69Z" fill="#80B4FB"/>
<path d="M5.59219 0.466095L5.4143 0.363567C4.39258 -0.225497 3.22548 -0.0586286 2.41145 0.577509L4.41457 2.58063C4.44702 1.74045 4.85088 1.03683 5.43837 0.577509H5.43888C5.48859 0.538814 5.53988 0.501184 5.59219 0.466095Z" fill="#DA387D"/>
<path d="M5.43891 25.4221L5.43942 25.4211L5.43835 25.4221C4.85036 24.9628 4.447 24.2586 4.41455 23.419L2.41148 25.4221C3.22546 26.0588 4.39261 26.2256 5.41428 25.6361L5.59217 25.5335C5.53986 25.4985 5.48857 25.4608 5.43891 25.4221Z" fill="#78C2A4"/>
</g>
<defs>
<clipPath id="clip0_1_156">
<rect width="26" height="26" fill="white" transform="matrix(1 0 0 -1 0 26)"/>
</clipPath>
</defs>
</svg>
